# xmcd
#
# Track frame offsets:
#	150
#	15521
#	27859
#	41084
#	60046
#	76516
#	90275
#	103605
#	121314
#	136399
#	147189
#	163434
#	177655
#	191470
#	202343
#	215191
#	229668
#	247564
#
# Disc length: 3586 seconds
#
# Revision: 5
# Processed by: cddbd v1.5.1PL0 Copyright (c) Steve Scherf et al.
# Submitted via: audiograbber 1.83.01
#
DISCID=ec0e0012
DTITLE=1996-04 Country Radio - 1996-04 Country Radio
DYEAR=1996
DGENRE=Country
TTITLE0=Brooks and Dunn - My Maria
TTITLE1=Clay Walker - Only On Days That End In ''y''
TTITLE2=Tracy Lawrence - Time Marches On
TTITLE3=Don Cox - Man Overboard
TTITLE4=Linda Davis - A Love Story In The Making
TTITLE5=Daryle Singletary - Workin' It Out
TTITLE6=Kim Richey - From Where I Stand
TTITLE7=Ricky Scaggs - Cat's In The Cradle
TTITLE8=Dwight Yoakam - Sorry You Asked
TTITLE9=Shelby Lynne - Another Chance At Love
TTITLE10=Mark Collie - Lipstick Don't Lie
TTITLE11=The Sky Kings - Picture Perfect
TTITLE12=Merle Haggard - Truck Driver Blues
TTITLE13=Pat Payne - Country Boy At Heart
TTITLE14=Ronna Reeves - My Heart Wasn't It
TTITLE15=Smokin' Armadillos - Thump Factor (Club Edit)
TTITLE16=Smokin' Armadillos - Thump Factor (Club)
TTITLE17=Smokin' Armadillos - Thump Factor (Beat Mix)
EXTD=
EXTT0=
EXTT1=
EXTT2=
EXTT3=
EXTT4=
EXTT5=
EXTT6=
EXTT7=
EXTT8=
EXTT9=
EXTT10=
EXTT11=
EXTT12=
EXTT13=
EXTT14=
EXTT15=
EXTT16=
EXTT17=
PLAYORDER=
